<svg width="818" height="1197" viewBox="0 0 818 1197" fill="none" xmlns="http://www.w3.org/2000/svg">
<g clip-path="url(#clip0_102_17)">
<path fill-rule="evenodd" clip-rule="evenodd" d="M-178.081 673.472C-163.802 674.874 -149.523 676.274 -135.243 677.676C-66.8551 682.901 1.50588 693.813 69.3704 700.362C71.0601 697.612 74.3674 698.065 76.3754 699.976C83.1473 699.383 90.7369 694.207 96.8711 699.591C97.0703 699.563 97.2695 699.53 97.4707 699.511C108.393 678.548 115.942 656.189 123.27 633.8C127.946 620.035 134.239 606.71 145.867 597.468C165.711 583.693 211.178 555.76 234.48 556.934C234.866 552.762 236.811 548.462 240.005 545.684C232.966 533.685 261.108 525.856 263.093 527.247C261.821 487.159 280.678 452.345 322.258 444.362C359.508 436.6 412.491 435.296 432.525 474.225C434.727 473.977 457.238 473.86 459.416 474.104C462.803 469.815 499.992 510.457 484.75 524.606C621.022 584.888 698.507 577.695 736.225 747.164C741.324 763.084 741.696 780.505 747.08 796.07C766.237 840.801 781.774 888.432 785.641 937.104C794.981 939.497 796.055 955.964 785.237 958.346C781.105 959.257 777.649 960.501 774.636 962.86C776.991 1002.75 767.345 1093.86 761.267 1093.58C748.873 1133.02 693.591 1144.15 654.454 1130.29C661.201 1142.99 654.454 1150.97 654.454 1157.75C513.627 1163.08 359.647 1160.01 218.859 1167.32C200.85 1167.06 181.908 1171.74 164.145 1169.05C153.312 1166.45 153.294 1149.42 164.282 1147.31L116.269 1136.88C117.342 1136.48 96.4782 1122.6 80.7093 1096.67C66.0315 1067.66 76.0211 1032.64 69.3704 1001.08C17.4259 996.833 -35.3773 995.017 -86.7532 986.22C-93.7582 1007.18 -124.082 982.113 -133.721 972.03C-133.709 972.014 -133.697 971.999 -133.685 971.983C-138.349 970.707 -142.09 966.335 -142.215 961.159C-145.486 956.485 -146.173 949.897 -143.036 945.38C-157.415 862.412 -179.335 777.7 -187.258 693.952C-190.058 693.332 -192.696 692.104 -194.932 690.212L-194.751 690.031C-198.54 685.807 -199.277 678.516 -192.96 674.927C-187.865 672.029 -183.611 672.928 -178.081 673.472Z" fill="white"/>
<path fill-rule="evenodd" clip-rule="evenodd" d="M429.928 465.184C425.685 454.521 411.342 458.666 412.941 469.868C413.898 476.578 417.573 483.665 420.874 489.546C423.562 494.333 426.628 499.005 430.785 502.593C423.385 509.497 415.704 516.149 407.828 522.465C399.234 529.356 390.197 535.708 380.856 541.546C372.665 546.666 364.104 551.202 356.383 557.044C349.204 562.475 342.664 569.007 339.336 577.534C335.791 586.614 337.332 595.992 339.942 605.066L340.242 606.092C342.909 615.082 347.526 625.919 341.124 634.389C337.865 638.701 333.127 641.755 329.036 645.202C325.4 648.266 321.987 651.598 318.857 655.177C312.032 662.979 306.481 671.758 302.978 681.54L302.665 682.429C299.662 691.088 297.468 701.696 301.525 710.198C302.689 712.635 306.443 711.843 307.095 709.47C308.569 704.094 308.492 698.464 309.728 693.012C311.014 687.342 313.154 681.96 315.949 676.868C321.357 667.017 328.681 658.603 337.334 651.489L339.924 649.383C346.674 643.843 352.876 637.966 354.246 628.798C355.712 618.989 351.782 609.645 349.255 600.361C347.494 593.891 346.919 587.689 348.822 581.842C351.147 585.637 354.319 589.239 356.828 592.452C361.825 598.853 366.869 605.215 371.9 611.589C377.058 618.125 382.089 624.764 386.88 631.575C389.023 634.622 391.143 637.687 393.256 640.755C394.845 643.061 397.061 645.365 398.793 647.717C398.372 648.975 398.404 650.425 399.167 651.455C408.352 663.865 421.419 637.971 424.827 631.429C431.767 618.106 436.932 603.952 443.895 590.632C451.11 576.824 459.326 563.384 468.483 550.778C474.022 543.153 480.23 535.991 485.297 528.124C497.234 538.948 512.942 546.204 527.37 552.784C543.223 560.013 559.692 565.918 575.945 572.188L580.746 574.053C608.751 584.983 637.44 596.99 660.717 616.403C688.07 639.216 704.252 671.012 716.299 703.938C730.167 741.843 741.64 780.771 752.335 819.674C757.808 839.579 763.001 859.574 767.883 879.633C772.185 897.305 775.751 915.153 780.731 932.643C770.631 932.286 759.112 936.196 750.489 937.325C711.19 942.469 672.42 950.669 635.317 964.866C630.734 966.62 629.408 971.197 630.406 974.907C627.763 974.161 625.122 973.405 622.479 972.663C625.375 968.226 623.993 960.294 623.765 955.376L623.751 955.038C623.517 948.485 622.806 941.925 622.345 935.384C621.467 922.915 620.325 910.537 618.805 898.14L618.417 895.04C616.695 881.552 615.422 867.985 613.543 854.52L613.321 852.979C614.222 849.534 615.271 846.131 616.372 842.743C619.306 833.718 623.447 825.223 627.076 816.482C627.504 815.453 626.038 814.862 625.353 815.479C619.207 821.008 614.325 828.022 610.403 835.358C610.335 835.012 610.275 834.665 610.204 834.319L609.757 832.116C608.653 826.744 607.311 821.092 604.015 816.735C603.664 816.272 602.97 816.175 602.638 816.735C599.484 822.072 599.131 828.831 598.646 834.904C598.097 841.774 598.028 848.731 598.125 855.62C598.314 869.083 599.263 882.584 600.019 896.025C600.761 909.233 602.217 922.274 604.094 935.352L604.451 937.805C605.369 944.03 606.12 950.333 607.33 956.515L607.672 958.198C608.319 961.264 608.717 965.587 610.005 969.178C576.867 959.935 543.678 950.903 510.426 942.03C486.393 935.616 462.335 929.298 438.287 922.94C437.018 920.653 435.438 918.517 433.466 916.608C426.969 910.316 418.359 907.509 410.462 912.352C409.82 912.747 409.766 913.753 410.462 914.134C411.975 914.961 413.491 915.809 414.98 916.693L400.54 912.782C389.747 909.857 378.825 906.202 367.778 904.163C347.431 894.122 325.547 886.854 304.113 879.671L301.587 878.817C290.613 875.075 279.261 870.886 267.922 868.812C259.621 867.294 249.877 869.126 246.539 877.63C242.313 880.415 238.337 883.688 234.5 886.907C231.726 889.233 229.067 891.706 226.363 894.114L225.865 894.552C223.654 896.47 221.903 897.754 221.36 900.807C221.08 902.384 222.082 904.516 224.027 904.307C229.978 903.67 234.817 896.772 238.853 892.653C241.971 889.469 245.114 886.177 247.96 882.678C249.619 883.581 251.893 883.419 252.949 881.419C258.425 871.05 273.426 878.235 281.726 880.694L293.616 884.213C299.561 885.975 305.503 887.746 311.435 889.548C327.739 894.499 343.963 900.04 360.415 904.587C358.943 906.205 359.146 909.083 361.942 910.178C374.82 915.231 388.948 917.844 402.327 921.311C410.774 923.502 419.216 925.706 427.655 927.923C429.102 930.267 430.143 932.919 430.581 936.006C432.192 947.357 429.086 960.453 426.06 971.431L425.604 973.069C423.117 981.895 419.458 992.715 411.843 998.288C409.984 999.647 407.617 1000.59 405.231 1000.81C390.324 993.134 375.418 985.462 360.503 977.804C357.74 976.385 355.187 978.306 354.567 980.59C349.308 979.727 344.061 978.367 339.282 976.745C331.252 974.018 324.982 968.817 317.454 965.22C302.888 958.262 288.013 966.809 274.972 973.307L271.966 974.784C266.118 977.622 253.95 983.073 251.144 975.312C248.43 967.804 257.011 959.78 262.553 956.401C269.159 952.372 276.851 950.216 284.317 948.42C288.58 947.394 292.895 946.557 297.236 945.946C302.16 945.253 307.246 945.357 311.987 943.76C314.343 942.968 314.705 939.226 311.987 938.608C304.689 936.947 295.979 938.759 288.363 940.61L284.382 941.591C276.709 943.474 268.962 945.837 261.973 949.593C256.891 952.325 251.527 956.475 248.023 961.555C244.98 958.728 241.193 958.824 237.248 959.872L235.107 960.468C231.571 961.447 228.705 962.122 225.264 961.443C224.804 958.94 224.338 956.436 223.839 953.932C218.936 929.318 213.559 904.798 207.626 880.409C197.392 838.341 185.55 796.735 172.2 755.556L170.86 751.439C167.781 742.02 165.303 731.758 160.339 723.105C155.644 714.923 148.122 710.21 139.185 707.714C129.043 704.882 118.386 703.4 108.04 701.487C105.732 701.061 103.418 700.656 101.108 700.237C103.06 696.712 104.517 692.711 105.83 689.641L106.06 689.109C108.88 682.68 111.413 676.136 113.859 669.556L115.688 664.61C120.105 652.699 124.664 640.984 130.873 629.844C137.409 618.12 146.08 608.535 156.889 600.602C178.927 584.426 205.49 576.175 226.865 558.888C227.741 558.18 226.618 556.969 225.729 557.417C211.296 564.669 195.715 569.6 180.703 575.504L177.742 576.672C165.876 581.376 153.826 586.497 143.556 594.112C132.106 602.604 123.088 613.15 116.31 625.691C109.63 638.053 105.357 651.89 100.644 665.094L99.3837 668.612C97.4827 673.888 95.5192 679.148 93.2692 684.282C91.4832 688.358 88.1502 693.011 86.6352 697.667C82.4902 696.948 78.3462 696.227 74.1972 695.534C-15.6698 680.53 -106.541 671.714 -197.614 669.135C-201.177 669.034 -203.02 672.434 -202.495 675.542C-193.755 727.223 -185.988 779.081 -177.466 830.801C-173.746 853.374 -169.952 875.93 -166.069 898.475C-164.102 909.897 -161.828 921.275 -159.965 932.714C-158.461 941.952 -157.369 951.262 -154.787 960.286C-152.471 968.377 -148.917 976.179 -143.08 982.352C-136.788 989.006 -128.006 992.227 -119.166 993.749C-96.7248 997.611 -73.7068 999.188 -51.0838 1001.76L69.3632 1015.46C67.6031 1031.46 67.4715 1047.21 68.2791 1063.4L68.7394 1072.23C69.1156 1079.34 69.5654 1086.46 70.5862 1093.49C71.8662 1102.31 75.9022 1109.78 81.8472 1116.37C87.3062 1122.43 93.9382 1127.59 100.389 1132.54C107.085 1137.68 114.004 1142.64 121.877 1145.81L122.899 1146.22C129.806 1148.91 142.762 1153.09 152.203 1151.56C150.969 1157.75 148.581 1164.4 150.698 1170.51C151.68 1173.35 155.395 1174.77 157.671 1172.35C162.18 1167.56 162.532 1161.24 163.6 1154.99C164.711 1148.48 165.669 1141.95 166.52 1135.41C168.166 1122.76 169.447 1109.99 169.838 1097.24C170.24 1084.13 170.085 1071.01 169.379 1057.93C169.016 1051.2 168.566 1044.49 167.713 1037.81C167.349 1034.96 166.977 1032.11 166.552 1029.27C166.397 1028.23 166.225 1027.2 166.04 1026.17L176.851 1027.39C193.428 1029.24 210.012 1030.92 226.706 1031.18C228.683 1031.21 230.204 1030.31 231.198 1028.99C232.257 1030.72 234.101 1031.95 236.742 1031.94C260.055 1031.86 281.765 1024.23 302.969 1015.25C313.657 1010.72 324.179 1005.82 334.883 1001.32C344.874 997.132 355.555 994.141 365.305 989.419L390.925 1002.86C391.113 1003.52 391.354 1004.14 391.61 1004.67C393.278 1008.07 396.567 1009.92 399.926 1011.31C403.15 1012.65 406.489 1013.06 409.742 1012.73C429.172 1022.91 448.607 1033.08 468.055 1043.23L487.507 1053.37C526.263 1073.55 564.866 1094.06 603.866 1113.76L606.737 1115.21C620.208 1121.96 634.673 1128.81 649.622 1133.92C649.888 1137.7 649.72 1141.38 649.403 1145.39L649.327 1146.26C648.881 1150.99 647.925 1156.92 651.722 1160.29C653.697 1162.04 657.225 1162.05 658.568 1159.41C661.005 1154.62 658.817 1147.07 658.045 1141.86C657.771 1140.01 657.437 1138.11 656.943 1136.26C674.081 1141.36 691.738 1143.84 709.178 1140.97C726.158 1138.18 739.309 1127.49 749.911 1114.4C761.1 1100.6 769.051 1084.51 773.317 1067.26C778.172 1047.63 778.489 1027.36 778.375 1007.25C778.254 985.844 777.462 964.329 774.858 943.064C777.711 942.393 780.875 941.813 783.758 942.013C785.186 944.298 787.956 945.26 790.459 944.963C795.902 950.966 782.096 957.101 777.684 958.637C776.152 959.171 776.316 961.659 778.083 961.584L779.196 961.531C786.014 961.168 793.057 960.004 797.065 953.669C800.277 948.591 799.312 942.575 795.483 938.434C792.954 914.522 786.908 891.237 781.281 867.911C775.759 845.016 769.618 822.268 763.109 799.635L760.191 789.505C749.943 754.016 739.231 718.241 725.094 684.163C718.035 667.147 709.903 650.444 698.88 635.607C688.605 621.776 676.474 609.941 662.53 599.833C636.535 580.987 606.033 569.6 576.063 558.751L574.721 558.266C559.19 552.648 543.697 546.963 528.343 540.876C514.764 535.493 501.755 528.668 488.24 523.204C488.679 522.407 489.103 521.601 489.511 520.786L489.761 520.996C489.804 521.03 489.848 521.063 489.893 521.094C491.252 522.036 493.253 521.573 494.373 520.516C497.536 517.532 496.465 514.22 494.354 511.125L494.079 510.731C491.497 507.114 489.194 503.29 486.811 499.542L485.319 497.198C481.319 490.937 477.116 484.633 471.782 479.458C469.312 477.06 466.608 475.266 463.743 473.929C463.988 473.411 461.84 472.352 461.231 472.885C452.154 469.563 441.711 470.259 431.815 471.175L429.928 465.184ZM75.1912 1016.13L87.8112 1017.56C101.695 1019.14 115.585 1020.67 129.476 1022.18L159.648 1025.46C159.725 1027.18 159.934 1028.86 159.972 1030.16C160.169 1036.86 160.316 1043.56 160.455 1050.26C160.734 1063.69 160.428 1077.13 159.544 1090.53C158.687 1103.51 157.559 1116.5 155.805 1129.4L155.446 1131.98L155.238 1133.34C153.807 1133.47 152.401 1134.15 151.232 1135.55C148.68 1138.6 139.439 1135.64 135.83 1134.35C129.895 1132.24 124.306 1128.67 119.149 1125.09C114.113 1121.6 109.578 1117.53 105.22 1113.23L101.655 1109.71C98.1079 1106.18 94.5573 1102.43 92.3842 1098C89.4372 1091.98 89.0562 1084.6 88.1922 1078.06C87.1282 1070 85.8612 1061.95 84.5222 1053.93L75.1912 1016.13ZM441.546 931.584L442.855 931.928C490.406 944.563 537.886 957.571 585.583 969.648C609.187 975.626 632.903 981.169 656.536 987.032L660.362 987.989C679.006 992.701 697.874 998.372 712.151 1011.9C712.678 1012.39 713.443 1011.63 712.947 1011.1C697.56 994.719 675.676 987.785 654.664 981.774C650.78 980.663 646.891 979.578 643.006 978.473C671.582 968.286 700.609 959.423 730.306 953.102C737.953 951.474 745.689 950.279 753.33 948.645C758.659 947.505 763.863 945.857 769.136 944.489L773.283 943.446L773.338 956.554C773.407 975.119 773.374 993.669 772.427 1012.23L772.248 1015.67C771.143 1036.33 769.418 1057.41 762.087 1076.89C756.13 1092.72 746.635 1107.63 734.218 1119.16C727.935 1124.99 721.18 1129.53 712.83 1131.78C705.077 1133.86 696.954 1134.1 688.984 1133.55C650.755 1130.88 616.725 1110.11 583.517 1092.92C529.2 1064.79 474.877 1036.69 420.505 1008.67C421.975 1007.67 423.359 1006.51 424.618 1005.21C431.909 997.676 435.755 987.368 438.281 977.385C440.97 966.759 442.578 955.37 442.765 944.4L441.546 931.584ZM372.363 1019.53C371.883 1019.27 371.327 1019.59 371.305 1020.13C371.137 1024.29 373.432 1028.38 375.147 1032.12L375.328 1032.52C377.411 1037.16 379.692 1041.73 382.051 1046.23C386.766 1055.22 391.666 1064.11 396.78 1072.88C407.064 1090.52 418.492 1107.42 432 1122.78C435.051 1126.25 440.069 1121.8 438.111 1118.07C428.671 1100.06 417.666 1083.05 406.338 1066.2C400.667 1057.76 395 1049.31 389.273 1040.91C386.884 1037.4 384.464 1033.91 381.979 1030.47L380.48 1028.41L372.363 1019.53ZM-191.592 679.45C-143.875 680.891 -96.2138 684.003 -48.7238 688.88C-4.55782 693.415 39.4462 699.452 83.2022 706.978C92.3414 708.55 101.469 710.186 110.586 711.887L116.054 712.915C125.172 714.643 136.311 715.356 144.429 720.227C152.988 725.362 155.301 736.094 158.149 744.944C161.497 755.352 164.76 765.79 167.935 776.253C180.543 817.796 192.06 859.699 202.334 901.879C207.434 922.816 211.959 943.87 216.727 964.883C220.963 983.553 225.637 1002.01 230.52 1020.5C229.918 1020.03 229.18 1019.67 228.289 1019.48C204.041 1014.32 179.29 1012.08 154.679 1009.23L152.298 1008.95C126.839 1005.96 101.38 1002.99 75.9062 1000.12L-92.7528 981.155C-102.7 980.037 -113.356 979.885 -123.036 977.216C-139.494 972.676 -143.351 954.276 -146.112 939.623L-146.196 939.18C-154.521 894.907 -161.148 850.249 -168.912 805.864L-191.592 679.45ZM226.595 969.029C233.143 968.597 242.105 962.6 247.073 963.03C244.465 967.406 243.288 972.397 244.791 977.727C248.974 992.559 267.891 984.885 277.003 980.354C284.474 976.637 291.688 972.089 299.959 970.348C309.329 968.378 315.677 972.104 323.593 976.399C330.095 979.926 337.176 982.459 344.458 983.77C348.33 984.468 352.008 984.542 355.679 984.27C355.9 984.45 356.149 984.617 356.433 984.766L358.375 985.785C349.594 986.187 340.65 988.897 332.478 991.378C324.01 993.948 315.697 997.046 307.428 1000.21L299.294 1003.34C279.228 1011.02 258.458 1018.32 236.742 1018.26C235.181 1018.25 233.902 1018.69 232.895 1019.39L226.595 969.029ZM263.231 922.555C256.762 921.764 250.791 922.612 245.622 926.823C239.388 931.901 235.2 940.323 226.238 940.876C223.625 941.037 223.018 944.711 225.615 945.479C232.286 947.454 237.687 943.845 242.232 939.159L245.288 935.966C249.779 931.316 253.922 927.72 261.543 927.998C269.705 928.296 277.881 930.182 285.99 931.141C295.176 932.227 304.36 933.153 313.575 933.952C314.003 933.989 314.076 933.315 313.675 933.216L303.354 930.647L263.231 922.555ZM269.475 896.109L268.408 896.002C259.015 895.09 250.424 895.055 242.034 900.108L240.425 901.081C232.861 905.678 224.628 911.094 219.898 918.538C219.124 919.757 220.403 921.19 221.698 920.88C230.789 918.698 237.435 912.028 245.08 907.036C253.66 901.434 262.523 902.358 272.306 903.228C281.778 904.071 291.245 905.229 300.624 906.808C309.437 908.29 318.278 910.63 327.18 911.376L327.178 911.358C328.195 911.356 328.775 909.829 327.738 909.311C318.704 904.8 308.241 902.665 298.414 900.604L269.475 896.109ZM-15.8895 803.264C-14.9815 798.921 -20.3235 796.907 -22.7995 800.352L-23.326 801.079C-28.6752 808.407 -36.4114 817.603 -36.0175 826.923C-40.7195 827.026 -45.5945 829.883 -47.4265 834.126C-48.2735 836.089 -48.5605 838.415 -48.3735 840.823C-52.6475 841.155 -57.3085 843.961 -59.9215 846.693C-64.2525 851.222 -64.5945 857.622 -61.4875 862.914C-54.7131 874.45 -39.914 878.646 -27.4207 879.583L-26.9755 879.615C-14.0715 880.507 4.52248 880.266 13.3705 869.195C21.9055 858.516 12.4725 849.87 2.7995 845.175C5.3175 842.876 6.62151 839.579 5.39551 836.102C3.24251 829.991 -4.3585 827.63 -8.6535 823.382C-13.8893 818.202 -17.3493 811.097 -15.9696 803.669L-15.8895 803.264ZM-22.9815 812.655C-21.5585 818.839 -18.0625 824.495 -13.1935 828.977C-11.3315 830.691 -9.29449 832.217 -7.13049 833.528L-6.87036 833.679C-4.94986 834.757 -0.22925 836.777 -0.592529 839.196C-0.966529 841.682 -8.65748 845.573 -10.7535 845.575C-11.2305 845.575 -11.5005 846.32 -11.0135 846.536C-7.21449 848.214 -3.89652 848.933 -0.181519 847.16C2.30048 849.694 4.71149 852.316 7.09949 854.915C11.3225 859.514 9.87751 864.37 4.88751 867.794C-3.13049 873.296 -15.3185 873.162 -24.6735 872.762C-34.0895 872.36 -44.1545 870.26 -51.5095 863.988L-51.8298 863.709C-55.8272 860.154 -59.4783 854.13 -53.3565 850.706C-50.9595 849.365 -48.3695 849.444 -46.0935 848.792C-43.9635 852.967 -40.5085 856.311 -36.2925 856.956C-32.8852 857.477 -30.5387 853.195 -33.6382 851.146L-34.3345 850.714C-38.2264 848.23 -41.5475 844.404 -41.4595 839.421C-41.3995 835.962 -36.5693 831.594 -33.4225 834.844L-33.2785 834.999C-30.6454 837.967 -26.0075 834.227 -27.7394 830.938L-27.8225 830.789L-22.9815 812.655ZM591.138 640.676C591.15 639.933 590.105 639.655 589.74 640.298C583.628 651.051 580.432 664.232 577.176 676.079C573.766 688.489 571.013 701.025 568.54 713.653C563.531 739.224 560.863 764.648 560.681 790.71C560.657 794.431 566.718 795.421 567.311 791.608C571.248 766.257 575.02 740.88 578.987 715.536C580.983 702.789 583.306 690.091 585.529 677.382L591.138 640.676ZM530.629 659.405C531.079 657.922 528.922 657.426 528.37 658.782C516.104 688.891 511.949 723.013 519.824 754.778C521.029 759.637 528.146 757.532 527.237 752.734L530.629 659.405ZM372.412 632.651C372.474 631.541 371.033 631.366 370.49 632.13C364.678 640.319 362.267 651.286 352.07 655.518C346.979 657.631 341.25 657.263 336.752 660.832C333.745 663.219 331.439 666.987 333.696 670.602C334.424 671.77 336.462 672.355 337.45 671.086C338.892 669.237 339.655 667.023 341.614 665.637C344.377 663.682 348.103 663.561 351.271 662.642C355.369 661.454 358.981 659.375 361.939 656.286L372.412 632.651ZM275.314 496.067C274.715 495.762 274.14 495.957 273.757 496.475C273.21 497.213 273.277 497.931 273.947 498.437C273.052 500.266 271.995 504.848 271.844 505.515C271.232 508.219 270.581 510.907 269.9 513.593C268.526 519.01 267.322 524.469 265.947 529.888C264.489 535.632 262.752 541.315 260.819 546.916C260.694 547.279 260.557 547.649 260.413 548.025L260.193 548.592L260.139 548.506C259.746 547.885 258.928 548.319 259.025 548.975C259.115 549.573 259.236 550.168 259.338 550.766L259.135 551.302C257.871 554.705 257.005 558.289 259.325 561.292C260.193 562.415 261.148 563.08 262.338 563.278C264.246 569.568 266.64 575.741 269.203 581.669L269.954 583.401C273.724 592.051 277.745 600.587 283.748 607.951C290.302 615.991 299.317 621.481 305.026 630.291C307.682 634.389 309.53 638.698 311.03 643.326L311.594 645.083C312.659 648.357 313.887 651.529 316.958 653.449C317.938 654.061 319.406 653.866 320.196 653.031C326.493 646.37 319.901 633.932 316.104 627.483C310.826 618.515 303.187 612.778 295.538 606.012C287.293 598.719 282.034 588.963 276.947 579.352C273.831 573.464 270.823 567.449 267.656 561.535C270.965 558.611 272.024 552.802 273.145 548.764L273.247 548.402C275.1 541.936 276.572 535.302 277.502 528.639C278.397 522.233 278.77 515.918 278.533 509.476L278.465 507.835L275.314 496.067ZM263.012 526.559C263.743 525.557 262.533 524.422 261.53 524.631C255.431 525.892 249.469 529.583 243.996 532.568L243.412 532.885C239.043 535.241 234.647 538.127 232.353 542.704C229.858 547.679 230.063 553.408 230.403 558.814L230.436 559.32C230.853 565.803 230.92 572.539 232.292 578.905C232.994 582.163 235.945 583.081 238.468 582.311C241.47 591.79 249.903 598.774 256.063 606.254C263.917 615.79 262.439 628.665 261.618 640.15C261.286 644.8 267.07 646.122 270.049 643.641L276.914 637.939C278.057 636.987 279.199 636.034 280.338 635.076C281.313 634.256 282.279 633.429 283.238 632.591L284.67 631.327C285.305 630.759 288.106 627.63 288.925 627.5C290.908 627.185 295.621 632.413 297.234 634.053L297.439 634.257C300.475 637.234 303.218 640.437 305.773 643.834C306.243 644.458 307.162 643.94 306.826 643.219C304.536 638.315 301.874 633.626 298.713 629.238L298.075 628.364C295.972 625.53 293.149 620.526 289.437 619.689C284.904 618.668 280.378 623.213 277.08 625.736L276.872 625.894C275.303 627.071 273.752 628.269 272.204 629.475C272.366 620.924 271.286 612.284 266.871 604.915C263.758 599.718 259.094 595.869 255.103 591.403C250.66 586.43 248.34 580.318 244.318 575.139C243.8 574.473 243.086 574.114 242.313 574C242.158 569.837 241.545 565.632 241.071 561.513L240.934 560.28C240.455 555.805 239.323 550.339 241.514 546.148C243.583 542.19 248.332 539.396 251.848 536.71L254.72 534.483L263.012 526.559ZM460.926 479.241C462.762 480.303 464.478 481.624 466.035 483.275C470.936 488.474 474.44 494.944 477.85 501.168C479.686 504.52 481.456 507.909 483.307 511.253C484.112 512.708 484.94 514.147 485.777 515.584C486.164 516.246 487.314 517.562 487.884 518.373C487.251 519.26 486.596 520.134 485.928 520.999C485.673 521.328 468.092 540.48 461.964 547.975C452.58 559.456 444.192 571.583 437.021 584.563C429.999 597.274 424.653 610.732 418.148 623.689C414.892 630.176 411.256 636.617 406.621 642.231C406.442 642.45 406.253 642.657 406.07 642.873C404.301 638.094 399.769 632.977 397.542 630.039L397.334 629.762C392.285 622.956 386.953 616.355 381.505 609.866C376.529 603.941 371.427 598.143 366.201 592.442L364.235 590.308C360.594 586.375 355.969 580.49 350.639 577.68C351.21 576.662 351.871 575.655 352.631 574.661C357.625 568.135 364.685 563.399 371.65 559.126L376.168 556.378C393.196 546.001 409.958 535.144 424.741 521.661C432.562 514.527 440.275 507.054 446.849 498.733L449.174 495.791L460.926 479.241ZM432.514 474.104C440.488 474.773 449.099 474.614 456.468 477.212C449.917 483.405 443.69 490.092 437.293 496.389C436.724 492.13 435.56 487.923 434.574 483.77" fill="black"/>
</g>
<path fill-rule="evenodd" clip-rule="evenodd" d="M338.959 75.2598C282.178 75.2598 223.448 119.272 202.635 147.357C185.135 170.97 175.714 277.745 175.714 349.905C175.714 364.997 167.385 393.446 169.816 407.882C178.722 460.781 217.524 505.146 294.323 505.146C371.121 505.146 426.185 474.704 483.267 392.973C510.964 392.973 524.387 371.733 524.585 338.214C524.713 315.868 515.8 300.63 497.847 292.5C504.249 204.314 499.388 148.741 483.267 125.782C459.086 91.3426 395.739 75.2598 338.959 75.2598Z" fill="white"/>
<path fill-rule="evenodd" clip-rule="evenodd" d="M362.854 56.5564C327.004 52.9264 291.874 55.9764 256.544 62.2874C253.844 62.7764 252.314 64.5474 251.745 66.6764C235.104 67.4364 218.444 68.6574 201.825 69.5674C195.794 69.8974 192.375 75.8564 195.125 81.2374C195.674 82.3064 196.245 83.3464 196.825 84.3864L196.096 84.1461C191.097 82.5423 185.696 81.7516 180.825 84.2974C174.625 87.5374 172.194 94.6864 173.564 101.266C173.915 102.946 174.504 104.556 175.174 106.127C173.814 106.037 172.444 106.067 171.084 106.247C163.844 107.207 158.464 112.757 158.084 120.147C157.524 131.306 164.714 142.627 173.184 150.616C171.955 153.147 171.484 156.127 171.995 159.147C173.015 165.117 177.413 168.692 182.511 171.024C180.385 177.775 179.38 184.833 179.973 192.046C180.171 194.454 182.277 196.443 184.5 196.931C176.214 219.745 172.02 244.239 169.004 268.106C166.854 285.087 165.794 302.167 165.665 319.276C165.602 327.001 165.729 334.734 166.053 342.46L166.184 345.356C166.584 353.707 166.604 362.476 168.104 370.737C162.984 379.446 160.924 390.257 160.054 400.016C158.974 412.096 160.684 424.556 164.495 436.047C178.875 479.466 222.274 506.866 265.865 513.987C306.214 520.577 352.904 511.707 376.484 475.056C376.854 474.476 376.064 473.997 375.604 474.377C358.734 488.096 339.165 494.216 317.904 497.196C281.144 502.337 239.825 493.616 210.325 470.497C196.165 459.397 185.955 443.237 181.464 425.846C179.174 416.957 178.384 407.686 179.285 398.537C180.205 389.257 184.314 381.337 186.904 372.567C187.774 369.606 186.854 366.856 185.044 364.897C184.535 357.776 183.334 350.596 182.875 343.497C182.365 335.426 182.054 327.356 181.944 319.276C181.734 302.516 182.434 285.726 183.844 269.037C186.424 238.476 193.274 208.657 197.294 178.356C198.782 179.691 200.916 180.239 203.152 179.073L203.384 178.946L204.604 178.247C204.674 178.247 204.754 178.257 204.825 178.266C213.174 179.077 221.834 177.917 229.834 175.426C238.205 172.827 245.974 168.827 252.915 163.497C254.234 170.186 254.785 176.946 254.794 183.766C254.804 188.026 259.314 190.237 262.894 188.417C278.764 180.356 293.924 171.067 308.314 160.627C309.995 169.237 311.674 177.846 313.365 186.466C314.014 189.787 318.245 191.127 320.955 189.547C331.734 183.276 341.044 175.067 348.624 165.306C350.137 168.2 351.655 171.094 353.183 173.981L355.484 178.306C357.754 182.556 360.794 187.257 365.764 188.616C371.024 190.056 375.415 186.647 377.184 181.886C377.724 180.407 378.224 178.886 378.684 177.356C383.165 187.587 388.224 197.587 393.944 207.127C402.524 221.436 412.825 234.186 423.094 247.266C426.214 251.237 431.554 247.446 431.984 243.587C432.234 241.317 432.444 239.037 432.625 236.766C438.609 248.842 444.853 260.805 451.656 272.421L450.682 276.238C447.875 287.516 445.544 298.874 443.01 310.212C442.192 313.87 444.136 319.1 448.41 319.723C453.516 320.467 458.347 323.076 463.577 321.281C469.28 319.323 470.407 314.394 473.099 309.722C473.636 308.791 474.261 307.936 474.933 307.124L475.104 307.346C475.524 307.897 476.524 307.297 476.274 306.667L475.981 305.939C478.294 303.484 481.062 301.436 483.607 299.233C489.655 298.214 496.458 299.33 500.625 301.787C510.115 307.386 514.474 318.926 514.564 329.537C514.674 341.957 510.825 355.917 504.325 366.537C501.464 371.207 497.544 375.426 492.365 377.497C487.224 379.556 481.654 378.917 476.424 380.856C472.964 382.147 470.834 385.987 472.924 389.466C473.064 389.707 473.224 389.926 473.375 390.157L471.819 392.222C470.749 393.652 469.634 395.183 468.594 396.776C465.934 399.837 463.134 402.787 460.424 405.797C455.415 411.346 450.554 417.047 445.625 422.676C440.974 427.987 436.054 432.976 430.984 437.886C426.194 442.537 420.214 446.446 415.814 451.407C411.535 456.247 410.374 464.696 417.415 467.497C425.204 470.604 432.1 463.324 437.343 458.47L437.564 458.266C447.176 449.421 455.856 439.313 462.749 428.184C469.577 432.832 479.453 433.276 486.252 428.629C489.83 426.184 492.575 422.075 493.909 417.605C495.167 417.887 496.424 418.052 497.65 418.033C498.281 418.399 498.914 418.755 499.554 419.087C504.625 421.726 510.854 420.547 513.174 414.936C515.286 409.843 513.109 404.058 511.206 399.15L510.814 398.136C509.734 395.337 508.544 392.287 507.064 389.417C511.184 386.317 514.705 382.466 517.684 378.087C527.694 363.337 532.694 341.766 530.484 324.167C529.154 313.547 524.165 302.547 515.995 295.386L516.294 294.606C518.584 288.797 520.665 282.966 522.014 276.827C523.594 269.647 524.365 262.207 525.064 254.897C526.544 239.457 526.144 223.667 524.174 208.287C520.474 179.337 511.094 150.917 494.444 126.827C499.165 121.176 502.904 114.526 500.955 106.877C500.064 103.366 498.035 100.037 494.974 98.0264C493.285 96.9174 491.274 96.7474 489.584 95.8274L489.076 95.5476C488.333 95.1144 488.901 95.1603 489.344 93.1474C491.094 85.1064 489.644 77.3374 480.794 74.6674C472.464 72.1574 464.584 77.4874 459.654 83.8374C446.754 74.6864 429.754 69.8974 414.804 65.8274C397.804 61.2164 380.365 58.3374 362.854 56.5564ZM502.193 326.257C502.254 319.707 496.044 315.667 489.933 316.738C485.83 317.452 482.407 319.901 479.193 322.432L477.625 323.672C473.711 326.745 469.218 330.057 466.884 334.408C463.464 340.828 470.693 349.467 477.443 344.967C482.074 341.864 485.042 336.892 488.079 332.273L488.393 331.797C489.773 329.727 490.983 327.527 492.874 325.867L493.283 325.509C493.904 324.979 494.572 324.496 495.374 324.267C496.923 323.822 499.791 324.445 500.473 326.288L500.534 326.477C500.784 327.408 502.183 327.207 502.193 326.257Z" fill="black"/>
<path fill-rule="evenodd" clip-rule="evenodd" d="M263.689 427.1C271.055 429.233 278.963 429.424 286.472 427.221C293.282 425.222 300.276 420.823 305.288 415.003C309.741 409.832 312.625 403.549 312.512 396.842C312.499 396.076 312.225 395.436 311.804 394.94C311.35 394.406 310.717 394.039 310.038 393.88C309.34 393.716 308.602 393.774 307.974 394.059C307.405 394.318 306.918 394.756 306.613 395.398C305.843 396.41 305.075 397.407 304.305 398.376C298.111 406.024 292.112 411.74 282.799 413.79C277.745 414.903 272.698 414.409 268.067 412.712C263.11 410.895 258.629 407.7 255.117 403.612C253.53 401.765 251.657 401.011 249.825 400.998C247.749 400.983 245.697 401.948 244.151 403.49C242.632 405.006 241.614 407.065 241.522 409.219C241.441 411.11 242.058 413.085 243.699 414.848C249.104 420.652 256.109 424.904 263.689 427.1ZM263.916 331.308C256.365 335.898 244.859 346.601 252.982 357.98C262.545 368.014 276.312 356.51 283.096 351.307C289.387 347.275 296.455 357.645 290.619 362.354C241.595 398.649 221.7 332.508 260.097 325.911C264.324 325.184 265.895 329.888 263.916 331.308ZM334.556 311.111C336.983 309.559 339.838 309.026 343.002 310.465C345.474 311.59 349.811 315.338 352.829 320.266C354.894 323.637 356.358 327.592 356.054 331.712C355.983 332.668 356.336 333.374 356.894 333.895C357.334 334.307 357.97 334.61 358.718 334.705C359.352 334.785 360.062 334.713 360.639 334.532C361.737 334.19 362.319 333.477 362.538 332.896C364.651 327.284 363.74 321.021 361.372 315.371C358.176 307.746 352.371 301.359 348.568 299.299C342.061 295.774 334.384 295.612 327.867 299.203C322.319 302.26 318.85 307.194 315.4 312.224C314.667 313.293 313.939 314.355 313.187 315.398C311.679 317.487 311.529 319.559 312.113 321.336C312.76 323.305 314.409 324.966 316.471 325.836C318.377 326.639 320.59 326.752 322.547 325.927C324.201 325.229 325.719 323.87 326.679 321.562C328.296 317.677 330.991 313.39 334.556 311.111ZM211.29 319.755C212.952 320.621 214.252 320.882 216.096 320.33C217.116 320.024 218.124 319.437 218.913 318.648C219.695 317.866 220.259 316.893 220.478 315.815C221.017 313.152 222.474 310.66 224.55 309.036C226.324 307.647 228.564 306.911 231.048 307.326C233.728 307.774 236.282 309.493 238.041 311.519C238.629 312.198 239.089 312.968 239.553 313.733C240.419 315.164 241.261 316.493 242.457 317.544C242.91 317.944 243.592 318.221 244.254 318.221C244.522 318.221 244.795 318.177 245.055 318.096C247.723 315.418 248.236 313.387 248.15 311.372C248.06 309.259 247.227 307.12 245.881 305.124C242.723 300.442 236.728 296.604 232.682 295.734C227.142 294.543 221.639 295.973 217.228 299.067C212.689 302.251 209.325 307.195 208.276 312.766C208.024 314.108 208.131 315.556 208.642 316.812C209.142 318.039 210.012 319.09 211.29 319.755ZM322.336 261.193C325.661 264.433 329.597 264.935 333.578 265.381C335.79 265.631 337.556 265.833 339.294 266.225C344.07 267.303 348.791 268.927 353.099 271.266C357.601 273.711 362.508 276.659 366.038 280.436C366.878 281.335 367.669 282.278 368.461 283.223C369.184 284.085 369.88 284.915 370.614 285.715C371.456 286.634 372.256 287.597 373.052 288.558C373.544 289.368 373.641 289.568 373.74 289.775C373.889 290.087 374.063 290.436 374.261 290.81C374.532 291.323 374.85 291.884 375.183 292.393C375.736 293.323 376.033 293.58 376.29 293.694C376.716 293.884 377.12 293.977 377.512 293.927C377.88 293.879 378.226 293.703 378.568 293.414C380.275 291.972 380.779 289.605 380.727 287.092C380.649 283.279 379.242 279.058 377.946 276.463C374.932 270.433 370.751 264.165 365.724 259.665C359.988 254.528 353.713 250.639 346.505 247.959C342.025 246.293 336.839 244.764 331.959 244.957C328.446 245.096 325.093 246.14 322.324 248.748C320.623 250.349 319.807 252.625 319.807 254.901C319.807 257.221 320.655 259.555 322.336 261.193ZM204.528 290.858C204.739 291.205 205.032 291.444 205.357 291.587C205.699 291.738 206.08 291.781 206.446 291.719C206.81 291.658 207.156 291.493 207.43 291.241C207.693 290.999 207.894 290.678 207.983 290.285C210.191 280.59 214.477 273.376 223.626 268.724C228.127 266.436 233.302 264.982 238.201 263.823C239.624 263.486 241.129 263.268 242.644 263.047C247.392 262.353 252.174 261.559 255.269 257.722C257.134 255.41 257.917 252.453 257.474 249.75C257.057 247.204 255.57 244.87 252.865 243.471C246.133 239.99 237.767 243.405 230.968 246.315C230.464 246.531 229.968 246.743 229.484 246.947C222.835 249.754 216.772 253.458 211.787 258.756C207.832 262.959 204.167 269.172 202.692 275.564C201.464 280.881 201.752 286.31 204.528 290.858Z" fill="black"/>
<defs>
<clipPath id="clip0_102_17">
<rect width="818" height="733" fill="white" transform="matrix(-1 0 0 1 818 464)"/>
</clipPath>
</defs>
</svg>
