<svg width="818" height="1197" viewBox="0 0 818 1197" fill="none" xmlns="http://www.w3.org/2000/svg">
<g clip-path="url(#clip0_82_12947)">
<path fill-rule="evenodd" clip-rule="evenodd" d="M-178.082 673.472C-163.802 674.874 -149.523 676.274 -135.243 677.676C-66.8553 682.901 1.50564 693.813 69.3701 700.362C71.0598 697.612 74.3672 698.065 76.3752 699.976C83.147 699.383 90.7367 694.207 96.8708 699.591C97.0701 699.563 97.2693 699.53 97.4705 699.511C108.392 678.548 115.942 656.189 123.269 633.8C127.946 620.035 134.239 606.71 145.866 597.468C165.71 583.693 211.178 555.76 234.48 556.934C234.866 552.762 236.811 548.462 240.004 545.684C232.966 533.685 261.108 525.856 263.093 527.247C261.82 487.159 280.677 452.345 322.257 444.362C359.508 436.6 412.49 435.296 432.525 474.225C434.727 473.977 457.238 473.859 459.416 474.103C462.802 469.814 499.992 510.457 484.75 524.606C621.022 584.888 698.507 577.695 736.225 747.164C741.324 763.084 741.696 780.505 747.08 796.07C766.236 840.801 781.774 888.432 785.641 937.104C794.98 939.497 796.054 955.964 785.236 958.346C781.104 959.257 777.649 960.501 774.636 962.86C776.991 1002.75 767.344 1093.86 761.266 1093.58C748.873 1133.02 693.591 1144.15 654.454 1130.29C661.2 1142.99 654.454 1150.97 654.454 1157.75C513.627 1163.08 359.647 1160.01 218.859 1167.31C200.85 1167.06 181.908 1171.74 164.145 1169.04C153.312 1166.45 153.294 1149.41 164.282 1147.31L116.269 1136.88C117.342 1136.48 96.478 1122.6 80.709 1096.66C66.0312 1067.65 76.0208 1032.64 69.3701 1001.08C17.4257 996.833 -35.3776 995.017 -86.7534 986.22C-93.7585 1007.18 -124.082 982.113 -133.721 972.03C-133.709 972.014 -133.697 971.999 -133.685 971.983C-138.35 970.707 -142.09 966.335 -142.215 961.159C-145.487 956.485 -146.173 949.897 -143.036 945.38C-157.415 862.412 -179.335 777.7 -187.258 693.952C-190.059 693.332 -192.696 692.104 -194.933 690.212L-194.751 690.031C-198.54 685.807 -199.277 678.516 -192.961 674.927C-187.865 672.029 -183.611 672.928 -178.082 673.472Z" fill="white"/>
<path fill-rule="evenodd" clip-rule="evenodd" d="M429.928 465.184C425.685 454.521 411.342 458.666 412.941 469.868C413.898 476.578 417.573 483.665 420.874 489.546C423.562 494.333 426.628 499.005 430.785 502.593C423.385 509.497 415.704 516.149 407.828 522.465C399.234 529.356 390.197 535.708 380.856 541.546C372.665 546.666 364.104 551.202 356.383 557.044C349.204 562.475 342.664 569.007 339.336 577.534C335.791 586.614 337.332 595.991 339.943 605.066L340.242 606.092C342.909 615.082 347.526 625.919 341.124 634.389C337.865 638.701 333.127 641.755 329.036 645.202C325.4 648.266 321.987 651.598 318.857 655.177C312.032 662.979 306.481 671.758 302.978 681.54L302.665 682.428C299.663 691.088 297.468 701.696 301.525 710.198C302.689 712.635 306.443 711.843 307.095 709.47C308.569 704.094 308.492 698.464 309.728 693.012C311.014 687.342 313.154 681.96 315.949 676.868C321.357 667.017 328.681 658.602 337.334 651.488L339.924 649.382C346.674 643.842 352.876 637.966 354.246 628.798C355.712 618.989 351.782 609.645 349.255 600.361C347.494 593.891 346.919 587.689 348.822 581.842C351.147 585.637 354.319 589.239 356.828 592.452C361.825 598.853 366.869 605.215 371.9 611.589C377.058 618.125 382.089 624.764 386.88 631.575C389.023 634.622 391.143 637.687 393.256 640.755C394.845 643.061 397.061 645.365 398.793 647.717C398.372 648.975 398.404 650.425 399.167 651.455C408.352 663.865 421.419 637.971 424.827 631.429C431.767 618.106 436.932 603.952 443.895 590.632C451.11 576.824 459.326 563.384 468.483 550.778C474.022 543.153 480.23 535.991 485.297 528.124C497.234 538.948 512.942 546.204 527.37 552.784C543.223 560.012 559.692 565.917 575.945 572.188L580.746 574.053C608.751 584.982 637.44 596.989 660.717 616.403C688.07 639.216 704.252 671.012 716.299 703.938C730.167 741.843 741.64 780.771 752.335 819.674C757.808 839.579 763.001 859.574 767.883 879.633C772.185 897.305 775.751 915.153 780.731 932.643C770.631 932.286 759.112 936.196 750.489 937.325C711.19 942.469 672.42 950.669 635.317 964.866C630.734 966.62 629.408 971.197 630.406 974.907C627.763 974.161 625.122 973.405 622.479 972.663C625.375 968.226 623.993 960.293 623.765 955.376L623.751 955.038C623.517 948.485 622.806 941.925 622.345 935.384C621.468 922.915 620.325 910.537 618.805 898.139L618.417 895.04C616.695 881.552 615.422 867.985 613.543 854.52L613.321 852.979C614.222 849.534 615.271 846.131 616.372 842.743C619.306 833.718 623.447 825.223 627.076 816.482C627.504 815.453 626.038 814.862 625.353 815.479C619.207 821.008 614.325 828.022 610.403 835.358C610.335 835.012 610.275 834.665 610.204 834.319L609.757 832.116C608.653 826.744 607.311 821.092 604.015 816.735C603.664 816.272 602.97 816.175 602.638 816.735C599.484 822.072 599.131 828.831 598.646 834.904C598.097 841.774 598.028 848.731 598.125 855.62C598.314 869.083 599.263 882.584 600.019 896.025C600.761 909.233 602.218 922.273 604.095 935.352L604.451 937.805C605.369 944.03 606.12 950.332 607.331 956.515L607.672 958.198C608.319 961.264 608.717 965.587 610.005 969.178C576.867 959.935 543.678 950.903 510.426 942.03C486.393 935.616 462.335 929.298 438.287 922.94C437.018 920.653 435.438 918.517 433.466 916.608C426.969 910.316 418.359 907.509 410.462 912.352C409.82 912.747 409.766 913.753 410.462 914.134C411.975 914.961 413.491 915.809 414.98 916.693L400.54 912.782C389.747 909.857 378.825 906.202 367.778 904.163C347.431 894.122 325.547 886.854 304.113 879.671L301.588 878.816C290.613 875.075 279.261 870.886 267.922 868.812C259.621 867.294 249.877 869.126 246.539 877.63C242.313 880.415 238.337 883.688 234.5 886.907C231.726 889.233 229.067 891.706 226.363 894.114L225.865 894.551C223.654 896.469 221.903 897.754 221.36 900.807C221.08 902.384 222.082 904.516 224.027 904.307C229.978 903.67 234.817 896.772 238.853 892.653C241.971 889.469 245.114 886.177 247.96 882.678C249.619 883.581 251.893 883.419 252.949 881.419C258.425 871.05 273.426 878.235 281.726 880.694L293.616 884.213C299.561 885.975 305.503 887.746 311.435 889.548C327.739 894.499 343.963 900.04 360.415 904.587C358.943 906.205 359.146 909.083 361.942 910.178C374.82 915.231 388.948 917.844 402.327 921.311C410.774 923.502 419.216 925.706 427.655 927.923C429.102 930.267 430.143 932.919 430.581 936.006C432.192 947.356 429.086 960.452 426.06 971.43L425.605 973.068C423.118 981.894 419.459 992.714 411.843 998.288C409.984 999.647 407.617 1000.59 405.231 1000.81C390.324 993.134 375.418 985.462 360.503 977.804C357.74 976.385 355.187 978.306 354.567 980.59C349.308 979.727 344.061 978.367 339.282 976.745C331.252 974.018 324.982 968.817 317.454 965.22C302.888 958.261 288.014 966.808 274.972 973.306L271.966 974.784C266.118 977.621 253.951 983.072 251.144 975.312C248.43 967.804 257.011 959.78 262.553 956.401C269.159 952.372 276.851 950.216 284.317 948.42C288.58 947.394 292.895 946.557 297.236 945.946C302.16 945.253 307.246 945.357 311.987 943.76C314.343 942.968 314.705 939.226 311.987 938.608C304.689 936.947 295.979 938.758 288.363 940.61L284.382 941.591C276.709 943.474 268.962 945.837 261.973 949.593C256.891 952.325 251.527 956.475 248.023 961.555C244.981 958.728 241.193 958.823 237.248 959.872L235.107 960.467C231.571 961.447 228.705 962.121 225.264 961.443C224.804 958.94 224.338 956.436 223.839 953.932C218.936 929.318 213.559 904.798 207.626 880.409C197.393 838.341 185.551 796.735 172.201 755.555L170.86 751.439C167.781 742.02 165.303 731.758 160.339 723.105C155.644 714.923 148.122 710.21 139.185 707.714C129.043 704.882 118.386 703.4 108.04 701.487C105.732 701.061 103.418 700.656 101.108 700.237C103.061 696.712 104.518 692.711 105.83 689.64L106.06 689.109C108.88 682.68 111.413 676.135 113.859 669.556L115.689 664.61C120.105 652.699 124.664 640.984 130.873 629.844C137.409 618.12 146.08 608.535 156.889 600.602C178.927 584.426 205.49 576.175 226.865 558.888C227.741 558.18 226.618 556.969 225.729 557.417C211.296 564.669 195.715 569.6 180.703 575.504L177.742 576.672C165.877 581.376 153.827 586.496 143.556 594.112C132.106 602.604 123.088 613.15 116.31 625.691C109.63 638.053 105.357 651.89 100.644 665.094L99.3839 668.612C97.4829 673.888 95.5194 679.147 93.2694 684.282C91.4834 688.358 88.1504 693.011 86.6354 697.667C82.4904 696.948 78.3464 696.227 74.1974 695.534C-15.6695 680.53 -106.541 671.714 -197.614 669.135C-201.177 669.034 -203.02 672.434 -202.495 675.542C-193.755 727.223 -185.988 779.081 -177.466 830.801C-173.746 853.374 -169.952 875.93 -166.069 898.475C-164.102 909.897 -161.828 921.275 -159.965 932.714C-158.461 941.952 -157.369 951.262 -154.787 960.286C-152.471 968.377 -148.917 976.179 -143.08 982.352C-136.788 989.006 -128.006 992.227 -119.166 993.749C-96.7246 997.611 -73.7066 999.188 -51.0836 1001.76L69.3635 1015.46C67.6033 1031.46 67.4718 1047.21 68.2794 1063.4L68.7396 1072.23C69.1159 1079.34 69.5657 1086.46 70.5864 1093.49C71.8664 1102.31 75.9024 1109.78 81.8474 1116.37C87.3064 1122.43 93.9385 1127.59 100.389 1132.54C107.085 1137.68 114.004 1142.63 121.877 1145.81L122.899 1146.22C129.806 1148.91 142.763 1153.09 152.203 1151.56C150.969 1157.75 148.581 1164.39 150.698 1170.51C151.68 1173.35 155.395 1174.77 157.671 1172.35C162.18 1167.56 162.532 1161.23 163.6 1154.98C164.711 1148.48 165.669 1141.95 166.52 1135.41C168.166 1122.76 169.447 1109.99 169.838 1097.23C170.24 1084.13 170.085 1071.01 169.379 1057.92C169.016 1051.2 168.566 1044.49 167.713 1037.81C167.349 1034.96 166.977 1032.11 166.552 1029.27C166.397 1028.23 166.225 1027.2 166.04 1026.17L176.851 1027.39C193.428 1029.24 210.013 1030.91 226.706 1031.17C228.683 1031.2 230.204 1030.3 231.198 1028.99C232.257 1030.72 234.101 1031.95 236.742 1031.94C260.055 1031.86 281.765 1024.23 302.969 1015.25C313.657 1010.72 324.179 1005.81 334.883 1001.32C344.874 997.132 355.555 994.141 365.305 989.419L390.925 1002.86C391.113 1003.52 391.354 1004.14 391.61 1004.67C393.278 1008.07 396.567 1009.92 399.926 1011.31C403.15 1012.65 406.489 1013.06 409.742 1012.72C429.173 1022.91 448.607 1033.08 468.055 1043.23L487.507 1053.37C526.263 1073.55 564.866 1094.06 603.866 1113.76L606.738 1115.21C620.208 1121.96 634.673 1128.81 649.622 1133.92C649.888 1137.7 649.72 1141.38 649.403 1145.39L649.327 1146.26C648.881 1150.99 647.926 1156.92 651.722 1160.29C653.697 1162.04 657.225 1162.05 658.568 1159.41C661.005 1154.62 658.817 1147.06 658.045 1141.86C657.771 1140.01 657.437 1138.11 656.943 1136.26C674.081 1141.36 691.738 1143.84 709.178 1140.97C726.158 1138.18 739.309 1127.49 749.911 1114.4C761.1 1100.6 769.051 1084.5 773.317 1067.26C778.172 1047.63 778.489 1027.36 778.375 1007.25C778.254 985.844 777.462 964.329 774.858 943.064C777.711 942.393 780.875 941.813 783.758 942.013C785.186 944.298 787.956 945.26 790.459 944.963C795.902 950.966 782.096 957.101 777.684 958.637C776.152 959.171 776.316 961.659 778.083 961.584L779.196 961.531C786.014 961.168 793.057 960.004 797.065 953.669C800.277 948.591 799.312 942.575 795.483 938.434C792.954 914.522 786.908 891.237 781.281 867.911C775.759 845.016 769.618 822.268 763.109 799.635L760.191 789.504C749.943 754.016 739.231 718.241 725.094 684.163C718.035 667.147 709.903 650.444 698.88 635.607C688.605 621.776 676.474 609.941 662.53 599.833C636.535 580.987 606.033 569.6 576.063 558.751L574.721 558.266C559.19 552.648 543.697 546.963 528.343 540.876C514.764 535.493 501.755 528.668 488.24 523.204C488.679 522.407 489.103 521.601 489.511 520.786L489.761 520.996C489.804 521.03 489.848 521.063 489.893 521.094C491.252 522.036 493.253 521.573 494.373 520.516C497.536 517.532 496.465 514.219 494.354 511.124L494.079 510.731C491.497 507.114 489.194 503.29 486.811 499.542L485.319 497.198C481.319 490.936 477.116 484.633 471.782 479.458C469.312 477.06 466.608 475.266 463.743 473.929C463.988 473.411 461.84 472.352 461.231 472.885C452.154 469.563 441.711 470.259 431.815 471.175L429.928 465.184ZM75.1915 1016.13L87.8115 1017.56C101.695 1019.14 115.585 1020.67 129.476 1022.18L159.648 1025.46C159.725 1027.18 159.934 1028.86 159.972 1030.16C160.169 1036.86 160.316 1043.56 160.455 1050.26C160.734 1063.68 160.428 1077.13 159.544 1090.53C158.688 1103.51 157.559 1116.5 155.806 1129.4L155.446 1131.98L155.238 1133.33C153.807 1133.47 152.401 1134.15 151.232 1135.55C148.68 1138.6 139.439 1135.63 135.83 1134.35C129.895 1132.24 124.306 1128.67 119.149 1125.09C114.113 1121.6 109.578 1117.53 105.221 1113.23L101.655 1109.71C98.1082 1106.18 94.5576 1102.43 92.3845 1097.99C89.4375 1091.98 89.0564 1084.6 88.1924 1078.05C87.1284 1070 85.8615 1061.95 84.5225 1053.93L75.1915 1016.13ZM441.546 931.584L442.855 931.928C490.406 944.563 537.886 957.571 585.583 969.648C609.187 975.626 632.903 981.169 656.536 987.032L660.363 987.989C679.007 992.701 697.874 998.372 712.151 1011.89C712.678 1012.39 713.443 1011.63 712.947 1011.1C697.56 994.719 675.676 987.785 654.664 981.774C650.78 980.663 646.891 979.578 643.006 978.473C671.582 968.286 700.609 959.423 730.306 953.102C737.953 951.474 745.689 950.279 753.33 948.645C758.659 947.504 763.864 945.856 769.136 944.489L773.283 943.446L773.339 956.553C773.408 975.118 773.375 993.668 772.427 1012.23L772.248 1015.67C771.143 1036.33 769.418 1057.41 762.087 1076.89C756.13 1092.72 746.635 1107.63 734.218 1119.16C727.935 1124.99 721.18 1129.53 712.83 1131.77C705.077 1133.86 696.954 1134.1 688.984 1133.54C650.755 1130.88 616.725 1110.11 583.517 1092.92C529.2 1064.79 474.877 1036.68 420.505 1008.67C421.975 1007.66 423.359 1006.51 424.618 1005.21C431.909 997.676 435.755 987.368 438.281 977.385C440.97 966.759 442.578 955.37 442.765 944.4L441.546 931.584ZM372.363 1019.53C371.883 1019.27 371.327 1019.59 371.305 1020.13C371.137 1024.29 373.432 1028.38 375.147 1032.12L375.328 1032.52C377.411 1037.16 379.692 1041.73 382.051 1046.23C386.766 1055.22 391.666 1064.11 396.78 1072.88C407.064 1090.52 418.492 1107.42 432 1122.78C435.051 1126.25 440.069 1121.8 438.111 1118.07C428.671 1100.06 417.666 1083.05 406.338 1066.19C400.667 1057.75 395 1049.31 389.273 1040.9C386.884 1037.4 384.464 1033.91 381.979 1030.47L380.48 1028.41L372.363 1019.53ZM-191.592 679.45C-143.875 680.891 -96.2136 684.003 -48.7236 688.88C-4.55757 693.415 39.4465 699.452 83.2025 706.978C92.3416 708.549 101.47 710.185 110.586 711.886L116.054 712.915C125.172 714.643 136.311 715.356 144.429 720.227C152.988 725.362 155.301 736.094 158.149 744.944C161.497 755.352 164.76 765.79 167.935 776.253C180.543 817.796 192.06 859.699 202.334 901.879C207.434 922.816 211.959 943.87 216.727 964.883C220.963 983.553 225.637 1002.01 230.52 1020.49C229.918 1020.03 229.18 1019.67 228.289 1019.48C204.042 1014.32 179.29 1012.08 154.68 1009.23L152.298 1008.95C126.839 1005.96 101.38 1002.99 75.9064 1000.12L-92.7526 981.155C-102.7 980.037 -113.356 979.885 -123.036 977.216C-139.493 972.675 -143.351 954.276 -146.112 939.622L-146.196 939.18C-154.521 894.907 -161.148 850.249 -168.912 805.864L-191.592 679.45ZM226.595 969.029C233.143 968.597 242.105 962.6 247.073 963.03C244.465 967.406 243.288 972.397 244.791 977.727C248.974 992.559 267.891 984.885 277.003 980.354C284.474 976.637 291.688 972.089 299.959 970.348C309.329 968.378 315.677 972.104 323.593 976.399C330.095 979.926 337.176 982.459 344.458 983.77C348.33 984.468 352.008 984.542 355.679 984.27C355.9 984.45 356.149 984.617 356.433 984.766L358.375 985.785C349.594 986.187 340.65 988.897 332.478 991.378C324.01 993.947 315.697 997.045 307.428 1000.21L299.294 1003.34C279.228 1011.02 258.458 1018.32 236.742 1018.26C235.181 1018.25 233.902 1018.68 232.895 1019.39L226.595 969.029ZM263.231 922.555C256.762 921.764 250.791 922.612 245.622 926.823C239.388 931.901 235.2 940.323 226.238 940.876C223.625 941.037 223.018 944.711 225.615 945.479C232.286 947.454 237.687 943.845 242.232 939.159L245.288 935.966C249.779 931.315 253.922 927.72 261.543 927.998C269.705 928.296 277.881 930.182 285.99 931.141C295.176 932.227 304.36 933.153 313.575 933.952C314.003 933.989 314.076 933.315 313.675 933.216L303.354 930.647L263.231 922.555ZM269.476 896.108L268.409 896.002C259.015 895.089 250.424 895.054 242.035 900.107L240.425 901.08C232.862 905.678 224.629 911.094 219.899 918.537C219.125 919.756 220.404 921.189 221.699 920.879C230.79 918.697 237.436 912.027 245.081 907.035C253.661 901.433 262.524 902.357 272.307 903.227C281.779 904.07 291.246 905.228 300.625 906.807C309.438 908.289 318.279 910.629 327.181 911.375L327.179 911.357C328.196 911.355 328.776 909.828 327.739 909.31C318.705 904.799 308.242 902.664 298.415 900.603L269.476 896.108ZM-15.8893 803.264C-14.9813 798.921 -20.3233 796.907 -22.7993 800.352L-23.3258 801.078C-28.675 808.406 -36.4111 817.602 -36.0173 826.923C-40.7193 827.026 -45.5943 829.883 -47.4263 834.126C-48.2733 836.089 -48.5603 838.415 -48.3733 840.823C-52.6473 841.155 -57.3083 843.961 -59.9213 846.693C-64.2523 851.222 -64.5942 857.622 -61.4872 862.914C-54.7129 874.449 -39.9138 878.646 -27.4205 879.582L-26.9753 879.615C-14.0713 880.507 4.52273 880.266 13.3707 869.195C21.9057 858.516 12.4727 849.87 2.79974 845.175C5.31774 842.876 6.62175 839.579 5.39575 836.102C3.24275 829.991 -4.35826 827.63 -8.65326 823.382C-13.8891 818.202 -17.3491 811.097 -15.9694 803.669L-15.8893 803.264ZM-22.9813 812.655C-21.5583 818.839 -18.0622 824.495 -13.1932 828.977C-11.3312 830.691 -9.29425 832.217 -7.13025 833.528L-6.87012 833.679C-4.94962 834.757 -0.229006 836.777 -0.592285 839.196C-0.966285 841.682 -8.65723 845.573 -10.7532 845.575C-11.2302 845.575 -11.5002 846.32 -11.0132 846.536C-7.21424 848.214 -3.89627 848.933 -0.181274 847.16C2.30073 849.694 4.71173 852.316 7.09973 854.915C11.3227 859.514 9.87776 864.37 4.88776 867.794C-3.13024 873.296 -15.3183 873.162 -24.6733 872.762C-34.0893 872.36 -44.1543 870.26 -51.5093 863.988L-51.8296 863.708C-55.8269 860.153 -59.478 854.129 -53.3563 850.706C-50.9593 849.365 -48.3693 849.444 -46.0933 848.792C-43.9633 852.967 -40.5082 856.311 -36.2922 856.956C-32.885 857.477 -30.5385 853.194 -33.6379 851.146L-34.3342 850.713C-38.2262 848.229 -41.5473 844.403 -41.4593 839.421C-41.3992 835.962 -36.569 831.593 -33.4223 834.843L-33.2783 834.999C-30.6452 837.967 -26.0073 834.226 -27.7391 830.938L-27.8223 830.789L-22.9813 812.655ZM591.138 640.675C591.15 639.932 590.105 639.654 589.74 640.297C583.628 651.05 580.433 664.231 577.177 676.078C573.767 688.488 571.014 701.024 568.541 713.652C563.532 739.223 560.863 764.647 560.682 790.709C560.657 794.43 566.719 795.42 567.312 791.607C571.249 766.256 575.021 740.879 578.988 715.535C580.984 702.788 583.307 690.09 585.53 677.381L591.138 640.675ZM530.63 659.405C531.08 657.922 528.922 657.426 528.37 658.782C516.104 688.891 511.95 723.013 519.825 754.778C521.03 759.637 528.147 757.532 527.238 752.734L530.63 659.405ZM372.412 632.651C372.474 631.541 371.033 631.366 370.49 632.13C364.678 640.319 362.267 651.286 352.07 655.518C346.979 657.631 341.25 657.263 336.752 660.832C333.745 663.219 331.439 666.987 333.696 670.602C334.424 671.77 336.462 672.355 337.45 671.086C338.892 669.237 339.655 667.023 341.614 665.637C344.377 663.682 348.103 663.561 351.271 662.642C355.369 661.454 358.981 659.375 361.939 656.286L372.412 632.651ZM275.314 496.067C274.715 495.762 274.14 495.957 273.757 496.475C273.21 497.213 273.277 497.931 273.947 498.437C273.052 500.266 271.995 504.848 271.844 505.515C271.232 508.219 270.581 510.907 269.9 513.593C268.526 519.01 267.322 524.469 265.947 529.888C264.489 535.632 262.752 541.315 260.819 546.916C260.694 547.279 260.557 547.649 260.413 548.025L260.193 548.592L260.139 548.506C259.746 547.885 258.928 548.319 259.025 548.975C259.115 549.573 259.236 550.168 259.338 550.766L259.136 551.302C257.871 554.705 257.005 558.289 259.325 561.292C260.193 562.415 261.148 563.08 262.338 563.278C264.246 569.568 266.64 575.741 269.203 581.669L269.954 583.4C273.724 592.05 277.745 600.587 283.748 607.951C290.302 615.991 299.317 621.481 305.026 630.291C307.682 634.389 309.53 638.698 311.03 643.326L311.594 645.083C312.659 648.356 313.887 651.529 316.958 653.449C317.938 654.061 319.406 653.866 320.196 653.031C326.493 646.37 319.901 633.932 316.104 627.483C310.826 618.515 303.187 612.778 295.538 606.012C287.293 598.719 282.034 588.963 276.947 579.352C273.831 573.464 270.823 567.449 267.656 561.535C270.965 558.611 272.024 552.802 273.145 548.764L273.247 548.402C275.1 541.936 276.572 535.302 277.502 528.639C278.397 522.232 278.77 515.918 278.534 509.475L278.465 507.834L275.314 496.067ZM263.012 526.559C263.743 525.557 262.533 524.422 261.53 524.631C255.432 525.892 249.47 529.583 243.996 532.568L243.412 532.885C239.043 535.241 234.647 538.127 232.353 542.704C229.858 547.678 230.063 553.408 230.404 558.814L230.436 559.32C230.853 565.803 230.92 572.539 232.292 578.905C232.994 582.163 235.945 583.081 238.468 582.311C241.47 591.79 249.903 598.774 256.063 606.254C263.917 615.79 262.439 628.665 261.618 640.15C261.286 644.8 267.07 646.122 270.049 643.641L276.914 637.939C278.057 636.987 279.199 636.033 280.338 635.076C281.313 634.255 282.28 633.428 283.238 632.591L284.67 631.327C285.305 630.759 288.106 627.63 288.925 627.5C290.909 627.184 295.622 632.412 297.234 634.052L297.439 634.257C300.475 637.234 303.218 640.437 305.773 643.834C306.243 644.458 307.162 643.94 306.826 643.219C304.536 638.315 301.874 633.626 298.714 629.237L298.075 628.364C295.972 625.53 293.149 620.526 289.437 619.689C284.904 618.667 280.378 623.213 277.081 625.736L276.872 625.894C275.303 627.071 273.752 628.269 272.204 629.475C272.366 620.924 271.286 612.284 266.871 604.915C263.758 599.718 259.094 595.869 255.103 591.403C250.66 586.43 248.34 580.318 244.318 575.139C243.8 574.473 243.086 574.114 242.313 574C242.158 569.836 241.545 565.631 241.071 561.513L240.934 560.28C240.455 555.805 239.323 550.339 241.514 546.148C243.583 542.189 248.332 539.395 251.849 536.709L254.72 534.482L263.012 526.559ZM460.926 479.241C462.762 480.303 464.478 481.624 466.035 483.275C470.936 488.474 474.44 494.944 477.85 501.168C479.686 504.52 481.456 507.909 483.307 511.253C484.112 512.708 484.94 514.147 485.777 515.584C486.164 516.246 487.314 517.562 487.884 518.373C487.251 519.26 486.596 520.134 485.928 520.998C485.673 521.328 468.093 540.479 461.964 547.975C452.58 559.456 444.192 571.583 437.021 584.563C429.999 597.274 424.653 610.732 418.148 623.689C414.892 630.176 411.256 636.617 406.621 642.231C406.442 642.45 406.253 642.657 406.07 642.873C404.301 638.094 399.769 632.977 397.543 630.039L397.334 629.762C392.285 622.956 386.953 616.355 381.505 609.866C376.529 603.94 371.427 598.143 366.201 592.441L364.235 590.308C360.594 586.375 355.969 580.49 350.639 577.68C351.21 576.662 351.871 575.655 352.631 574.661C357.625 568.135 364.685 563.399 371.651 559.126L376.168 556.378C393.196 546.001 409.959 535.143 424.741 521.661C432.562 514.527 440.275 507.054 446.849 498.733L449.174 495.79L460.926 479.241ZM432.514 474.104C440.488 474.773 449.099 474.614 456.468 477.212C449.917 483.405 443.69 490.092 437.293 496.389C436.724 492.13 435.56 487.923 434.574 483.77" fill="black"/>
</g>
<path fill-rule="evenodd" clip-rule="evenodd" d="M338.959 75.2598C282.178 75.2598 223.448 119.272 202.635 147.357C185.136 170.97 175.714 277.745 175.714 349.905C175.714 364.997 167.385 393.446 169.816 407.882C178.722 460.781 217.525 505.146 294.323 505.146C371.122 505.146 426.185 474.704 483.267 392.973C510.964 392.973 524.387 371.733 524.585 338.214C524.713 315.868 515.8 300.63 497.848 292.5C504.249 204.314 499.389 148.741 483.267 125.782C459.086 91.3426 395.739 75.2598 338.959 75.2598Z" fill="white"/>
<path fill-rule="evenodd" clip-rule="evenodd" d="M362.853 56.5559C327.003 52.9259 291.873 55.9759 256.543 62.2869C253.843 62.7759 252.314 64.5469 251.745 66.6759C235.104 67.4359 218.443 68.6569 201.824 69.5669C195.793 69.8969 192.375 75.8559 195.125 81.2369C195.674 82.3059 196.244 83.3459 196.824 84.3859L196.096 84.1457C191.096 82.5418 185.696 81.7511 180.824 84.2969C174.624 87.5369 172.194 94.6859 173.564 101.266C173.915 102.946 174.503 104.556 175.173 106.127C173.813 106.037 172.443 106.067 171.083 106.247C163.843 107.207 158.463 112.757 158.083 120.147C157.523 131.306 164.714 142.627 173.184 150.616C171.955 153.147 171.484 156.127 171.995 159.147C173.015 165.117 177.412 168.692 182.51 171.024C180.384 177.775 179.38 184.833 179.973 192.046C180.171 194.454 182.277 196.443 184.5 196.931C176.214 219.745 172.02 244.239 169.004 268.106C166.854 285.087 165.793 302.167 165.664 319.276C165.601 327 165.729 334.733 166.053 342.459L166.184 345.356C166.584 353.707 166.603 362.476 168.103 370.737C162.983 379.446 160.923 390.257 160.053 400.016C158.973 412.096 160.684 424.556 164.495 436.047C178.875 479.466 222.274 506.866 265.865 513.987C306.214 520.577 352.903 511.707 376.483 475.056C376.853 474.476 376.063 473.997 375.603 474.377C358.733 488.096 339.164 494.216 317.903 497.196C281.143 502.337 239.824 493.616 210.324 470.497C196.164 459.397 185.955 443.237 181.464 425.846C179.174 416.957 178.383 407.686 179.284 398.537C180.204 389.257 184.314 381.337 186.904 372.567C187.774 369.606 186.853 366.856 185.043 364.897C184.534 357.776 183.334 350.596 182.875 343.497C182.365 335.426 182.054 327.356 181.944 319.276C181.734 302.516 182.434 285.726 183.844 269.037C186.424 238.476 193.273 208.657 197.293 178.356C198.782 179.691 200.916 180.239 203.152 179.073L203.384 178.946L204.603 178.247C204.673 178.247 204.753 178.257 204.824 178.266C213.173 179.077 221.833 177.917 229.833 175.426C238.204 172.827 245.973 168.827 252.914 163.497C254.233 170.186 254.784 176.946 254.793 183.766C254.803 188.026 259.313 190.237 262.893 188.417C278.763 180.356 293.923 171.067 308.313 160.627C309.994 169.237 311.673 177.846 313.364 186.466C314.013 189.787 318.244 191.127 320.954 189.547C331.733 183.276 341.043 175.067 348.623 165.306C350.137 168.2 351.655 171.093 353.183 173.981L355.483 178.306C357.753 182.556 360.793 187.257 365.763 188.616C371.023 190.056 375.414 186.647 377.183 181.886C377.723 180.407 378.223 178.886 378.683 177.356C383.164 187.587 388.223 197.587 393.943 207.127C402.523 221.436 412.824 234.186 423.093 247.266C426.213 251.237 431.553 247.446 431.983 243.587C432.233 241.317 432.443 239.037 432.624 236.766C438.608 248.842 444.852 260.805 451.655 272.421L450.681 276.238C447.874 287.516 445.543 298.874 443.009 310.212C442.191 313.87 444.135 319.1 448.409 319.723C453.515 320.467 458.346 323.076 463.576 321.281C469.279 319.323 470.406 314.394 473.098 309.722C473.635 308.791 474.26 307.936 474.932 307.124L475.103 307.346C475.523 307.897 476.523 307.297 476.273 306.667L475.98 305.939C478.293 303.484 481.061 301.436 483.606 299.233C489.654 298.214 496.457 299.33 500.624 301.787C510.114 307.386 514.473 318.926 514.563 329.537C514.673 341.957 510.824 355.917 504.324 366.537C501.463 371.207 497.543 375.426 492.364 377.497C487.223 379.556 481.653 378.917 476.423 380.856C472.963 382.147 470.833 385.987 472.923 389.466C473.063 389.707 473.223 389.926 473.374 390.157L471.819 392.221C470.749 393.651 469.633 395.183 468.593 396.776C465.933 399.837 463.133 402.787 460.423 405.797C455.414 411.346 450.553 417.047 445.624 422.676C440.973 427.987 436.053 432.976 430.983 437.886C426.193 442.537 420.213 446.446 415.813 451.407C411.534 456.247 410.373 464.696 417.414 467.497C425.204 470.603 432.099 463.323 437.343 458.469L437.563 458.266C447.175 449.421 455.855 439.313 462.748 428.184C469.576 432.832 479.452 433.276 486.251 428.629C489.829 426.184 492.574 422.075 493.908 417.605C495.166 417.887 496.423 418.052 497.649 418.033C498.28 418.399 498.913 418.755 499.553 419.087C504.624 421.726 510.853 420.547 513.173 414.936C515.286 409.842 513.109 404.057 511.206 399.15L510.813 398.136C509.733 395.337 508.543 392.287 507.063 389.417C511.183 386.317 514.704 382.466 517.683 378.087C527.693 363.337 532.693 341.766 530.483 324.167C529.153 313.547 524.164 302.547 515.994 295.386L516.293 294.606C518.583 288.797 520.664 282.966 522.013 276.827C523.593 269.647 524.364 262.207 525.063 254.897C526.543 239.457 526.143 223.667 524.173 208.287C520.473 179.337 511.093 150.917 494.443 126.827C499.164 121.176 502.903 114.526 500.954 106.877C500.063 103.366 498.034 100.037 494.973 98.0259C493.284 96.9169 491.273 96.7469 489.583 95.8269L489.075 95.5471C488.333 95.1139 488.901 95.1598 489.343 93.1469C491.093 85.1059 489.643 77.3369 480.793 74.6669C472.463 72.1569 464.583 77.4869 459.653 83.8369C446.753 74.6859 429.753 69.8969 414.803 65.8269C397.803 61.2159 380.364 58.3369 362.853 56.5559ZM502.193 326.256C502.254 319.706 496.044 315.666 489.933 316.737C485.83 317.451 482.407 319.9 479.192 322.431L477.625 323.671C473.711 326.744 469.217 330.057 466.884 334.407C463.464 340.827 470.693 349.466 477.443 344.966C482.073 341.863 485.041 336.891 488.079 332.273L488.393 331.796C489.773 329.726 490.983 327.526 492.874 325.866L493.283 325.508C493.904 324.979 494.571 324.495 495.374 324.266C496.922 323.821 499.79 324.444 500.473 326.288L500.534 326.476C500.784 327.407 502.183 327.206 502.193 326.256Z" fill="black"/>
<path fill-rule="evenodd" clip-rule="evenodd" d="M290.516 425.203C297.015 422.544 302.814 418.108 307.054 412.442C308.528 410.472 308.91 408.391 308.601 406.489C308.253 404.35 306.991 402.411 305.27 401.11C303.544 399.805 301.385 399.162 299.297 399.49C297.483 399.775 295.677 400.771 294.248 402.837L293.949 403.25C291.429 406.671 288.144 409.477 284.402 411.285C280.794 413.029 276.76 413.842 272.585 413.369C264.634 412.468 259.154 408.156 253.329 402.299C252.607 401.56 251.884 400.797 251.158 400.022C250.7 399.32 250.063 398.868 249.357 398.631C248.573 398.368 247.685 398.383 246.873 398.668C246.089 398.942 245.388 399.462 244.918 400.154C244.472 400.811 244.218 401.624 244.301 402.558C244.834 408.628 247.998 414.045 252.492 418.298C257.483 423.022 264.1 426.29 270.329 427.436C277.191 428.698 284.184 427.794 290.516 425.203V425.203ZM267.091 331.569C259.79 336.02 248.666 346.399 256.52 357.433C265.765 367.163 279.076 356.007 285.636 350.962C291.718 347.052 298.552 357.108 292.908 361.674C245.51 396.87 226.274 332.733 263.399 326.336C267.486 325.631 269.004 330.192 267.091 331.569ZM352.03 290.627C351.223 280.584 335.974 278.304 334.457 288.241C333.098 297.143 334.697 305.321 338.695 313.335C342.515 320.992 352.117 317.42 352.843 310.448C353.816 301.102 352.532 296.874 352.03 290.627ZM235.946 286.181C233.82 283.388 230.751 281.482 227.073 282.559C215.582 285.927 218.969 302.289 223.004 310.253C225.197 314.578 232.285 315.674 235.488 311.866C240.709 305.656 243.209 293.255 236.572 287.138C236.392 286.822 236.192 286.503 235.946 286.181ZM338.857 246.684L337.042 246.365C331.427 245.391 324.445 244.455 320.472 248.983C318.366 251.384 317.641 255.846 320.472 258.145C325.454 262.188 330.961 260.621 336.93 260.964C341.849 261.247 346.577 262.063 351.316 263.422C361.711 266.402 370.182 271.842 379.061 277.815C380.226 278.599 381.415 277.104 380.859 276.011C375.734 265.943 365.801 257.672 355.852 252.631C350.542 249.94 344.732 247.708 338.857 246.684ZM246.421 242.174L245.032 242.459C229.913 245.628 210.27 251.96 203.111 266.854C202.838 268.96 203.126 269.412 203.361 269.706L203.439 269.805C203.632 270.056 203.786 270.404 204.696 270.69C204.949 270.63 205.204 270.566 205.462 270.498C208.743 269.636 211.34 268.447 213.854 267.214L216.579 265.868C219.741 264.312 222.931 262.814 226.312 261.708C233.527 259.348 240.948 257.685 248.484 256.797C250.117 256.605 251.69 256.052 252.931 255.104C254.109 254.205 255.008 252.96 255.419 251.305C255.95 249.162 255.798 247.541 254.652 245.608C253.79 244.157 252.557 243.151 251.141 242.573C249.698 241.984 248.055 241.846 246.421 242.174Z" fill="black"/>
<defs>
<clipPath id="clip0_82_12947">
<rect width="818" height="733" fill="white" transform="matrix(-1 0 0 1 818 464)"/>
</clipPath>
</defs>
</svg>
